<svg width="600" height="600" viewBox="0 0 600 600" fill="none" xmlns="http://www.w3.org/2000/svg">
<rect width="600" height="600" fill="white"/>
<path d="M479.931 269.176C476.754 269.176 474.19 266.608 474.19 263.424V237.992H472.097C458.955 237.992 454.082 240.163 454.082 252.173V280.246C454.082 280.246 454.082 280.355 454.082 280.427V286.577C454.082 286.794 454.082 286.975 454.082 287.192V326.408C454.082 331.183 453.142 335.018 451.265 337.984C447.691 343.52 440.578 346.015 429.242 346.051C417.907 346.051 410.794 343.52 407.22 337.984C405.306 335.018 404.403 331.219 404.403 326.408V287.192C404.403 286.975 404.403 286.758 404.403 286.577V280.427C404.403 280.427 404.403 280.319 404.403 280.246V252.173C404.403 240.163 399.529 237.992 386.389 237.992H382.237C369.095 237.992 364.221 240.163 364.221 252.173V326.408C364.221 338.346 366.893 348.475 372.091 356.614C382.128 372.425 401.551 380.816 429.17 380.816C429.17 380.816 429.242 380.816 429.279 380.816C429.315 380.816 429.35 380.816 429.386 380.816C457.005 380.816 476.43 372.387 486.465 356.614C491.664 348.475 494.336 338.346 494.336 326.408V269.213H480.038L479.931 269.176Z" fill="#002124"/>
<path d="M540.656 197.691H519.03C516.677 197.691 514.77 199.603 514.77 201.96V223.883C514.77 226.241 516.677 228.152 519.03 228.152H540.656C543.009 228.152 544.917 226.241 544.917 223.883V201.96C544.917 199.603 543.009 197.691 540.656 197.691Z" fill="#002124"/>
<path d="M511.883 177H497.188C495.594 177 494.301 178.296 494.301 179.894V194.799C494.301 196.397 495.594 197.693 497.188 197.693H511.883C513.477 197.693 514.77 196.397 514.77 194.799V179.894C514.77 178.296 513.477 177 511.883 177Z" fill="#002124"/>
<path d="M112.114 237.957H80.6684C63.8805 237.957 56.3711 245.446 56.3711 262.304V370.399C56.3711 376.91 58.4651 378.974 64.9275 378.974H67.0576C73.5562 378.974 75.614 376.875 75.614 370.399V328.326H112.078C144.426 328.326 159.517 313.964 159.517 283.141C159.517 252.319 144.462 237.957 112.078 237.957H112.114ZM140.274 283.141C140.274 300.759 135.798 310.31 112.114 310.31H75.6501V264.836C75.6501 258.541 77.9967 256.19 84.2786 256.19H112.114C129.949 256.19 140.274 260.603 140.274 283.141Z" fill="#002124"/>
<path d="M200.026 268.961C187.57 268.961 179.772 270.517 176.811 271.132C171.576 272.289 169.374 273.7 169.374 279.705V281.406C169.374 283.757 169.735 285.385 170.457 286.507C171.324 287.845 172.696 288.496 174.609 288.496C175.512 288.496 176.595 288.352 177.858 288.026C180.855 287.266 190.422 285.711 200.892 285.711C219.702 285.711 227.356 290.92 227.356 303.727V315.158H203.636C173.165 315.158 158.977 325.469 158.977 347.572C158.977 369.676 173.634 380.855 200.242 380.855C231.869 380.855 245.985 370.075 245.985 345.873V303.727C245.985 280.32 230.966 268.961 200.026 268.961ZM227.356 330.389V345.22C227.356 357.304 222.878 364.285 200.026 364.285C184.935 364.285 177.606 358.823 177.606 347.536C177.606 335.2 184.971 330.389 203.853 330.389H227.356Z" fill="#002124"/>
<path d="M350.214 273.988C348.878 272.287 346.316 272.07 343.788 272.07H341.874C335.52 272.07 333.029 274.024 331.657 280.138L314.039 353.539C311.837 362.547 308.732 364.212 303.461 364.212C296.998 364.212 294.399 362.655 291.8 353.503L271.834 280.101C270.173 273.951 267.756 272.07 261.4 272.07H259.704C257.14 272.07 254.578 272.323 253.277 274.024C251.977 275.724 252.411 278.293 253.097 280.825L273.278 354.879C277.07 369.06 281.546 380.78 298.369 380.78C301.511 380.78 304.399 380.346 306.818 379.515C301.727 395.577 296.529 402.668 281.257 404.223C278.153 404.475 276.13 404.911 275.012 406.429C273.857 407.986 274.109 410.229 274.542 412.254L274.975 414.136C275.877 418.512 277.43 421.262 282.377 421.262C282.883 421.262 283.46 421.262 284.038 421.189C306.854 419.706 319.093 407.371 326.277 378.683L350.72 280.753C351.297 278.256 351.658 275.688 350.323 273.988H350.214Z" fill="#002124"/>
<path d="M509.031 228.152H479.933C476.755 228.152 474.191 230.721 474.191 233.904V237.956H476.214C489.356 237.956 494.228 240.127 494.228 252.137V269.176H509.031C512.209 269.176 514.771 266.608 514.771 263.424V233.904C514.771 230.721 512.209 228.152 509.031 228.152Z" fill="#002124"/>
</svg>
